<svg width="48" height="144" viewBox="0 0 48 144" fill="none" xmlns="http://www.w3.org/2000/svg">
<path fill-rule="evenodd" clip-rule="evenodd" d="M24 41C33.3888 41 41 33.3888 41 24C41 14.6112 33.3888 7 24 7C14.6112 7 7 14.6112 7 24C7 33.3888 14.6112 41 24 41ZM24 44C35.0457 44 44 35.0457 44 24C44 12.9543 35.0457 4 24 4C12.9543 4 4 12.9543 4 24C4 35.0457 12.9543 44 24 44Z" fill="#989898"/>
<path fill-rule="evenodd" clip-rule="evenodd" d="M35.0607 16.9393C35.6464 17.5251 35.6464 18.4749 35.0607 19.0607L20.6667 33.4547L12.9393 25.7273C12.3536 25.1415 12.3536 24.1918 12.9393 23.606C13.5251 23.0202 14.4749 23.0202 15.0607 23.606L20.6667 29.212L32.9393 16.9393C33.5251 16.3536 34.4749 16.3536 35.0607 16.9393Z" fill="#00B864"/>
<path fill-rule="evenodd" clip-rule="evenodd" d="M4.03703 71.4074C4.34996 66.4006 7.99902 63 13.0156 63H24C29.2467 63 33 66.7533 33 72V83C33 88.2467 29.2466 92 23.9999 92V89C27.5898 89 30 86.5898 30 83V72C30 68.4102 27.5898 66 24 66H13.0156C9.58321 66 7.2453 68.1688 7.03119 71.5945L7 72.0936L4.00584 71.9064L4.03703 71.4074ZM23.6196 78.7156C24.0199 79.096 24.036 79.729 23.6555 80.1293C21.2401 82.6708 17.2476 82.6374 14.7284 80.1523C14.3352 79.7645 14.3309 79.1313 14.7188 78.7382C15.1066 78.345 15.7398 78.3407 16.1329 78.7285C17.8995 80.4711 20.6033 80.4377 22.2058 78.7515C22.5863 78.3512 23.2192 78.3351 23.6196 78.7156ZM15.5 75.5C16.3284 75.5 17 74.4926 17 73.25C17 72.0074 16.3284 71 15.5 71C14.6716 71 14 72.0074 14 73.25C14 74.4926 14.6716 75.5 15.5 75.5ZM22.6531 75.5C23.4815 75.5 24.1531 74.4926 24.1531 73.25C24.1531 72.0074 23.4815 71 22.6531 71C21.8247 71 21.1531 72.0074 21.1531 73.25C21.1531 74.4926 21.8247 75.5 22.6531 75.5Z" fill="#F8D063"/>
<path fill-rule="evenodd" clip-rule="evenodd" d="M24 52C12.9543 52 4 60.9543 4 72C4 83.0457 12.9543 92 24 92C28.9829 92 33.5403 90.1777 37.0419 87.1632L40.9393 91.0607C41.5251 91.6464 42.4749 91.6464 43.0607 91.0607C43.6464 90.4749 43.6464 89.5251 43.0607 88.9393L39.1632 85.0419C42.1777 81.5403 44 76.9829 44 72C44 60.9543 35.0457 52 24 52ZM36.4072 83.6217C39.2557 80.5818 41 76.4946 41 72C41 62.6112 33.3888 55 24 55C14.6112 55 7 62.6112 7 72C7 81.3888 14.6112 89 24 89C28.4946 89 32.5818 87.2557 35.6217 84.4072C35.6947 84.2373 35.8006 84.0781 35.9393 83.9393C36.0781 83.8006 36.2373 83.6947 36.4072 83.6217Z" fill="#989898"/>
<path fill-rule="evenodd" clip-rule="evenodd" d="M17 106V114.016C13.091 114.274 10 117.526 10 121.5V136.5C10 138.985 12.0147 141 14.5 141H33.5C35.9853 141 38 138.985 38 136.5V135H35V136.5C35 137.328 34.3284 138 33.5 138H14.5C13.6716 138 13 137.328 13 136.5V121.5C13 119.015 15.0147 117 17.5 117H32C33.6569 117 35 118.343 35 120H38C38 116.686 35.3137 114 32 114H31V106C31 102.134 27.866 99 24 99C20.134 99 17 102.134 17 106ZM24 102C21.7909 102 20 103.791 20 106V114H28V106C28 103.791 26.2091 102 24 102Z" fill="#989898"/>
<path fill-rule="evenodd" clip-rule="evenodd" d="M22 122C19.7909 122 18 123.791 18 126V129C18 131.209 19.7909 133 22 133H39C41.2091 133 43 131.209 43 129V126C43 123.791 41.2091 122 39 122H22ZM20 126C20 124.895 20.8954 124 22 124H39C40.1046 124 41 124.895 41 126V129C41 130.105 40.1046 131 39 131H22C20.8954 131 20 130.105 20 129V126ZM26 127.5C26 128.328 25.3284 129 24.5 129C23.6716 129 23 128.328 23 127.5C23 126.672 23.6716 126 24.5 126C25.3284 126 26 126.672 26 127.5ZM30.5 129C31.3284 129 32 128.328 32 127.5C32 126.672 31.3284 126 30.5 126C29.6716 126 29 126.672 29 127.5C29 128.328 29.6716 129 30.5 129ZM36.5 129C37.3284 129 38 128.328 38 127.5C38 126.672 37.3284 126 36.5 126C35.6716 126 35 126.672 35 127.5C35 128.328 35.6716 129 36.5 129Z" fill="#52ADF4"/>
</svg>
