<svg width="96" height="96" viewBox="0 0 96 96" fill="none" xmlns="http://www.w3.org/2000/svg">
<path fill-rule="evenodd" clip-rule="evenodd" d="M26 21.805C26 19.4013 22 19.3954 22 21.805C22 24.2135 22.9119 28.6912 22.9793 29.0008C23.0457 29.3113 23.0988 29.4981 23.2938 29.6988C23.685 30.1012 24.3181 30.1002 24.7082 29.6968C24.9247 29.4731 24.9635 29.3123 25.0217 29.0008C25.0789 28.6902 26 24.2076 26 21.805Z" fill="white"/>
<path fill-rule="evenodd" clip-rule="evenodd" d="M24 32C22.896 32 22 32.896 22 34C22 35.104 22.896 36 24 36C25.104 36 26 35.104 26 34C26 32.896 25.104 32 24 32Z" fill="white"/>
<path opacity="0.7" fill-rule="evenodd" clip-rule="evenodd" d="M24 5L4.33086 39.317C3.3941 40.952 4.5579 43 6.42354 43H41.5765C43.4421 43 44.6059 40.952 43.6691 39.317L24 5ZM24 10.975L40.6367 40H7.36326L24 10.975Z" fill="white"/>
<path fill-rule="evenodd" clip-rule="evenodd" d="M20 58C20 55.791 21.791 54 24 54C26.209 54 28 55.791 28 58V74C28 76.209 26.209 78 24 78C21.791 78 20 76.209 20 74V58ZM20 86C20 83.791 21.791 82 24 82C26.209 82 28 83.791 28 86C28 88.209 26.209 90 24 90C21.791 90 20 88.209 20 86Z" fill="white"/>
<path opacity="0.7" fill-rule="evenodd" clip-rule="evenodd" d="M17.0001 60C12.4322 61.2174 8.25628 63.6236 4.85334 67.0749C3.69536 68.2498 3.71936 70.1294 4.90433 71.2755C6.09131 72.4207 7.99028 72.3969 9.14726 71.2241C11.3912 68.9486 14.0732 67.2788 17.0001 66.2415V60ZM13.2302 74.9828C14.3482 73.8218 15.6211 72.8736 17.0001 72.1412V74.0148C17.0001 75.6202 17.5571 77.093 18.4821 78.2679C18.1671 78.5183 17.8601 78.7836 17.5761 79.0795C16.4321 80.2663 14.5322 80.3108 13.3342 79.1815C12.1352 78.0511 12.0882 76.1706 13.2302 74.9828ZM30.9999 74.0148V72.1412C32.3789 72.8736 33.6518 73.8218 34.7698 74.9828C35.9118 76.1706 35.8648 78.0511 34.6658 79.1815C34.0848 79.7288 33.3398 80 32.5969 80C31.8049 80 31.0139 79.6922 30.4239 79.0795C30.1399 78.7836 29.8329 78.5183 29.5179 78.2679C30.4429 77.093 30.9999 75.6202 30.9999 74.0148ZM31.0004 60.0005C35.5683 61.2179 39.7442 63.6241 43.1472 67.0754C44.3041 68.2503 44.2811 70.1299 43.0952 71.275C42.5112 71.8382 41.7552 72.1193 41.0002 72.1193C40.2192 72.1193 39.4402 71.8194 38.8522 71.2236C36.6093 68.9491 33.9263 67.2783 31.0004 66.241V60.0005Z" fill="white"/>
</svg>
